<svg width="19" height="24" viewBox="0 0 19 24" fill="none" xmlns="http://www.w3.org/2000/svg">
    <path fill-rule="evenodd" clip-rule="evenodd"
          d="M18.2869 19.3753C18.2869 23.1668 13.0875 23.605 9.17762 23.605L8.89783 23.6048C6.40676 23.5988 0.0660057 23.4415 0.0660057 19.3523C0.0660057 15.6383 5.05646 15.1419 8.93661 15.1232L9.45741 15.1229C11.9483 15.1289 18.2869 15.2862 18.2869 19.3753ZM9.17762 16.8481C4.27615 16.8481 1.79147 17.6901 1.79147 19.3523C1.79147 21.0295 4.27615 21.8796 9.17762 21.8796C14.0779 21.8796 16.5615 21.0375 16.5615 19.3753C16.5615 17.6982 14.0779 16.8481 9.17762 16.8481ZM9.17762 0.7479C12.5457 0.7479 15.2846 3.48794 15.2846 6.85605C15.2846 10.2242 12.5457 12.9631 9.17762 12.9631H9.14081C5.7796 12.9527 3.05682 10.2115 3.06828 6.8526C3.06828 3.48794 5.80836 0.7479 9.17762 0.7479ZM9.17762 2.39054C6.71481 2.39054 4.71094 4.39324 4.71094 6.85605C4.70291 9.31082 6.6918 11.3124 9.14426 11.3216H9.17762C11.6393 11.3216 13.642 9.31772 13.642 6.85605C13.642 4.39324 11.6393 2.39054 9.17762 2.39054Z"
          fill="currentColor"></path>
</svg>
