<?xml version="1.0" encoding="utf-8"?>
<!-- Generator: Adobe Illustrator 23.1.0, SVG Export Plug-In . SVG Version: 6.00 Build 0)  -->
<svg version="1.1" id="Слой_1" xmlns="http://www.w3.org/2000/svg" xmlns:xlink="http://www.w3.org/1999/xlink" x="0px" y="0px"
	 viewBox="0 0 22 22" style="enable-background:new 0 0 22 22;" xml:space="preserve">
<style type="text/css">
	.st0{fill:#FFB710;stroke:#FFB710;stroke-width:4;stroke-miterlimit:10;}
</style>
<path class="st0" d="M0,1c8,0,8,0,8,0L0,1z"/>
<line class="st0" x1="1" y1="8" x2="1" y2="0"/>
<path class="st0" d="M21,0c0,8,0,8,0,8L21,0z"/>
<line class="st0" x1="14" y1="1" x2="22" y2="1"/>
<path class="st0" d="M22,21c-8,0-8,0-8,0L22,21z"/>
<line class="st0" x1="21" y1="14" x2="21" y2="22"/>
<path class="st0" d="M1,22c0-8,0-8,0-8L1,22z"/>
<line class="st0" x1="8" y1="21" x2="0" y2="21"/>
<path class="st0" d="M11,15V7"/>
<path class="st0" d="M15,11l-8,0"/>
<path class="st0" d="M11,11"/>
<path class="st0" d="M11,8"/>
</svg>
