<?xml version="1.0" encoding="utf-8"?>
<!-- Generator: Adobe Illustrator 23.1.0, SVG Export Plug-In . SVG Version: 6.00 Build 0)  -->
<svg version="1.1" id="Слой_1" xmlns="http://www.w3.org/2000/svg" xmlns:xlink="http://www.w3.org/1999/xlink" x="0px" y="0px"
	 viewBox="0 0 16 16" style="enable-background:new 0 0 16 16;" xml:space="preserve">
<style type="text/css">
	.st0{fill:#2694FF;}
</style>
<g>
	<path class="st0" d="M8,2c3.3,0,6,2.7,6,6s-2.7,6-6,6s-6-2.7-6-6S4.7,2,8,2 M8,0C3.6,0,0,3.6,0,8s3.6,8,8,8s8-3.6,8-8S12.4,0,8,0
		L8,0z"/>
</g>
<g>
	<circle class="st0" cx="8" cy="8" r="2"/>
	<path class="st0" d="M8,6C6.9,6,6,6.9,6,8s0.9,2,2,2s2-0.9,2-2S9.1,6,8,6L8,6z"/>
</g>
</svg>
