<?xml version="1.0" encoding="UTF-8" standalone="no"?>
<!DOCTYPE svg PUBLIC "-//W3C//DTD SVG 1.1//EN" "http://www.w3.org/Graphics/SVG/1.1/DTD/svg11.dtd">
<svg width="100%" height="100%" viewBox="0 0 2588 2588" version="1.1" xmlns="http://www.w3.org/2000/svg" xmlns:xlink="http://www.w3.org/1999/xlink" xml:space="preserve" xmlns:serif="http://www.serif.com/" style="fill-rule:evenodd;clip-rule:evenodd;stroke-linejoin:round;stroke-miterlimit:2;">
    <g id="Layer-1" serif:id="Layer 1" transform="matrix(6.98569,0,0,6.98569,-872.474,-768.075)">
        <g transform="matrix(1,0,0,1,282.749,320.47)">
            <path d="M0,-63.587C0,-65.052 0.671,-65.785 2.015,-65.785L46.145,-65.785C46.939,-65.785 47.503,-65.563 47.84,-65.121C48.176,-64.678 48.343,-64.121 48.343,-63.45L48.343,-55.392C48.343,-54.844 48.152,-54.355 47.771,-53.928C47.389,-53.5 46.817,-53.287 46.054,-53.287L13.505,-53.287L13.505,-39.37L38.592,-39.37C39.202,-39.431 39.691,-39.301 40.057,-38.981C40.423,-38.66 40.607,-38.118 40.607,-37.356L40.607,-29.069C40.607,-28.52 40.453,-28.031 40.149,-27.604C39.843,-27.177 39.355,-26.964 38.683,-26.964L13.505,-26.964L13.505,-10.3L47.245,-10.3C48.098,-10.3 48.664,-10.116 48.938,-9.75C49.213,-9.384 49.35,-8.818 49.35,-8.057L49.35,0.276C49.35,1.557 48.679,2.198 47.336,2.198L2.015,2.198C1.465,2.198 0.992,2.045 0.596,1.74C0.199,1.435 0,0.947 0,0.276L0,-63.587Z" style="fill:rgb(35,31,32);fill-rule:nonzero;"/>
        </g>
        <g transform="matrix(1,0,0,1,377.506,300.83)">
            <path d="M0,-24.307C0,-25.558 -0.237,-26.779 -0.71,-27.97C-1.183,-29.16 -1.847,-30.22 -2.702,-31.151C-3.556,-32.082 -4.563,-32.829 -5.722,-33.394C-6.883,-33.959 -8.165,-34.241 -9.569,-34.241L-22.249,-34.241L-22.249,-14.419L-9.569,-14.419C-8.195,-14.419 -6.92,-14.693 -5.746,-15.243C-4.571,-15.793 -3.556,-16.525 -2.702,-17.441C-1.847,-18.356 -1.183,-19.409 -0.71,-20.6C-0.237,-21.79 0,-23.026 0,-24.307M-35.8,-43.535C-35.8,-44.329 -35.586,-44.962 -35.159,-45.435C-34.732,-45.907 -34.106,-46.145 -33.282,-46.145L-7.645,-46.145C-4.563,-46.145 -1.717,-45.542 0.892,-44.336C3.501,-43.13 5.753,-41.521 7.645,-39.507C9.536,-37.492 11.017,-35.157 12.085,-32.502C13.153,-29.847 13.688,-27.084 13.688,-24.216C13.688,-21.408 13.168,-18.699 12.131,-16.09C11.093,-13.48 9.636,-11.169 7.76,-9.155C5.882,-7.14 3.654,-5.53 1.075,-4.325C-1.504,-3.119 -4.32,-2.517 -7.371,-2.517L-22.249,-2.517L-22.249,19.412C-22.249,21.031 -23.073,21.838 -24.721,21.838L-33.328,21.838C-34.122,21.838 -34.732,21.632 -35.159,21.22C-35.586,20.808 -35.8,20.206 -35.8,19.412L-35.8,-43.535Z" style="fill:rgb(35,31,32);fill-rule:nonzero;"/>
        </g>
        <g transform="matrix(1,0,0,1,410.421,279.268)">
            <path d="M0,18.817L19.411,18.817L9.752,-4.852L0,18.817ZM4.441,-23.071C4.654,-23.498 4.945,-23.857 5.31,-24.148C5.677,-24.437 6.272,-24.583 7.096,-24.583L12.407,-24.583C13.077,-24.583 13.597,-24.437 13.962,-24.148C14.329,-23.857 14.619,-23.498 14.833,-23.071L42.072,41.295L42.072,41.569C42.072,42.026 41.917,42.446 41.614,42.828C41.308,43.21 40.621,43.4 39.554,43.4L30.764,43.4C30.183,43.4 29.748,43.302 29.458,43.103C29.169,42.905 28.933,42.531 28.75,41.981L24.217,31.314L-4.807,31.314L-9.338,41.981C-9.614,42.928 -10.179,43.4 -11.033,43.4L-20.554,43.4C-21.318,43.4 -21.845,43.256 -22.134,42.965C-22.425,42.676 -22.569,42.256 -22.569,41.707C-22.569,41.646 -20.28,36.229 -15.702,25.455C-11.124,14.681 -4.41,-1.494 4.441,-23.071" style="fill:rgb(35,31,32);fill-rule:nonzero;"/>
        </g>
        <g transform="matrix(0,-1,-1,0,147.724,277.126)">
            <path d="M-11.551,-11.551C-17.93,-11.551 -23.102,-6.38 -23.102,0C-23.102,6.379 -17.93,11.551 -11.551,11.551C-5.172,11.551 0,6.379 0,0C0,-6.38 -5.172,-11.551 -11.551,-11.551" style="fill:rgb(73,199,233);fill-rule:nonzero;"/>
        </g>
        <g transform="matrix(1,0,0,1,147.724,257.658)">
            <path d="M0,13.322C4.207,13.322 8.02,14.851 11.056,17.303C11.566,16.604 12.044,15.877 12.636,15.247C14.528,13.233 16.771,11.638 19.366,10.463C21.96,9.288 24.813,8.7 27.927,8.7C30.399,8.7 32.74,9.082 34.953,9.845C37.165,10.608 39.217,11.676 41.111,13.05C41.751,13.446 42.301,13.599 42.759,13.507C43.216,13.416 43.675,13.065 44.132,12.454L48.573,4.901C48.908,4.23 48.954,3.649 48.71,3.161C48.466,2.674 48.085,2.276 47.565,1.971C44.697,0.048 41.63,-1.424 38.364,-2.447C35.098,-3.469 31.65,-3.981 28.018,-3.981C24.783,-3.981 21.677,-3.561 18.702,-2.721C15.726,-1.882 12.941,-0.707 10.347,0.803C7.753,2.315 5.395,4.138 3.274,6.274C1.152,8.411 -0.671,10.784 -2.196,13.393C-2.226,13.444 -2.246,13.5 -2.276,13.551C-1.523,13.454 -0.78,13.322 0,13.322" style="fill:rgb(35,31,32);fill-rule:nonzero;"/>
        </g>
        <g transform="matrix(1,0,0,1,196.48,311.292)">
            <path d="M0,3.502L-4.533,-4.143C-4.99,-4.753 -5.441,-5.089 -5.883,-5.15C-6.325,-5.211 -6.883,-5.043 -7.554,-4.646C-9.416,-3.274 -11.476,-2.204 -13.734,-1.443C-15.993,-0.679 -18.357,-0.298 -20.829,-0.298C-23.943,-0.298 -26.796,-0.877 -29.39,-2.038C-31.985,-3.197 -34.228,-4.784 -36.12,-6.798C-36.721,-7.438 -37.207,-8.172 -37.723,-8.881C-40.756,-6.441 -44.56,-4.919 -48.756,-4.919C-49.552,-4.919 -50.312,-5.052 -51.081,-5.154C-51.033,-5.071 -51.001,-4.981 -50.952,-4.899C-49.427,-2.319 -47.604,0.031 -45.482,2.151C-43.361,4.273 -41.003,6.097 -38.409,7.623C-35.815,9.149 -33.03,10.323 -30.054,11.147C-27.079,11.971 -23.973,12.383 -20.738,12.383C-17.106,12.383 -13.62,11.857 -10.278,10.805C-6.935,9.751 -3.846,8.263 -1.007,6.34C-0.488,6.036 -0.107,5.654 0.137,5.195C0.381,4.738 0.336,4.173 0,3.502" style="fill:rgb(35,31,32);fill-rule:nonzero;"/>
        </g>
        <g transform="matrix(1,0,0,1,357.276,416.235)">
            <path d="M0,-255.118C-53.172,-255.118 -98.721,-222.573 -117.876,-176.327C-117.938,-176.152 -117.988,-175.97 -117.988,-175.773C-117.988,-174.821 -117.217,-174.05 -116.264,-174.05L-106.366,-174.049L-106.366,-174.05C-105.674,-174.05 -105.085,-174.464 -104.811,-175.054C-104.802,-175.049 -104.819,-175.058 -104.811,-175.054C-86.726,-214.899 -46.608,-242.62 0,-242.62C63.546,-242.62 115.061,-191.105 115.061,-127.559C115.061,-64.012 63.546,-12.498 0,-12.498C-46.61,-12.498 -86.708,-40.197 -104.791,-80.047C-105.046,-80.66 -105.666,-81.068 -106.366,-81.068L-116.264,-81.069L-116.264,-81.068C-117.216,-81.068 -117.987,-80.296 -117.987,-79.344C-117.987,-79.147 -117.936,-78.964 -117.875,-78.787C-98.719,-32.543 -53.17,0 0,0C70.449,0 127.559,-57.11 127.559,-127.559C127.559,-198.008 70.449,-255.118 0,-255.118" style="fill:rgb(73,199,233);fill-rule:nonzero;"/>
        </g>
        <g transform="matrix(1,0,0,1,245.017,254.684)">
            <path d="M0,67.985C1.153,67.985 1.967,66.884 1.649,65.775C-1.247,55.681 -2.802,45.019 -2.802,33.993C-2.802,22.967 -1.247,12.305 1.649,2.21C1.967,1.102 1.153,0.001 0,0.001L-9.378,0C-10.164,0 -10.859,0.527 -11.06,1.287C-13.821,11.726 -15.3,22.686 -15.3,33.993C-15.3,45.3 -13.822,56.26 -11.06,66.698C-10.859,67.458 -10.164,67.985 -9.378,67.985L0,67.985Z" style="fill:rgb(73,199,233);fill-rule:nonzero;"/>
        </g>
        <g transform="matrix(1,0,0,1,260.534,287.119)">
            <path d="M0,3.115C-0.009,3.2 -0.015,3.287 -0.025,3.372C-0.084,3.859 -0.17,4.338 -0.277,4.812C-0.298,4.904 -0.319,4.997 -0.341,5.088C-0.465,5.592 -0.611,6.09 -0.79,6.58C-0.792,6.588 -0.795,6.594 -0.798,6.601C-0.993,7.132 -1.22,7.655 -1.479,8.169C-2.515,10.224 -3.942,12.051 -5.756,13.653C-5.799,13.69 -5.843,13.727 -5.886,13.764C-6.247,14.077 -6.625,14.377 -7.011,14.669C-7.256,14.854 -7.508,15.032 -7.764,15.208C-7.888,15.295 -8.015,15.379 -8.143,15.464C-10.516,17.024 -13.316,18.212 -16.379,18.993C-18.803,19.666 -21.404,20.045 -24.127,20.045C-24.277,20.045 -24.421,20.031 -24.57,20.029C-24.719,20.031 -24.863,20.045 -25.014,20.045C-27.735,20.045 -30.335,19.666 -32.757,18.994C-35.823,18.214 -38.624,17.025 -40.999,15.464C-41.127,15.379 -41.254,15.295 -41.378,15.208C-41.634,15.032 -41.886,14.854 -42.131,14.669C-42.517,14.377 -42.895,14.077 -43.256,13.764C-43.299,13.727 -43.343,13.69 -43.386,13.653C-45.2,12.051 -46.626,10.224 -47.663,8.169C-47.922,7.655 -48.149,7.132 -48.344,6.601C-48.347,6.594 -48.35,6.588 -48.352,6.58C-48.531,6.09 -48.677,5.592 -48.801,5.088C-48.823,4.997 -48.844,4.904 -48.865,4.812C-48.972,4.338 -49.058,3.859 -49.117,3.372C-49.127,3.287 -49.133,3.2 -49.142,3.115C-49.195,2.601 -49.23,2.083 -49.23,1.556C-49.23,1.548 -49.229,1.541 -49.229,1.535C-49.229,1.021 -49.195,0.515 -49.142,0.013C-49.133,-0.072 -49.127,-0.158 -49.117,-0.242C-49.057,-0.734 -48.97,-1.22 -48.859,-1.701C-48.843,-1.771 -48.827,-1.841 -48.811,-1.91C-48.549,-2.97 -48.171,-4.003 -47.663,-5.008C-46.619,-7.08 -45.179,-8.921 -43.344,-10.532C-42.892,-10.93 -42.42,-11.31 -41.929,-11.675C-41.897,-11.698 -41.863,-11.72 -41.831,-11.744C-41.474,-12.005 -41.1,-12.251 -40.724,-12.496C-38.336,-14.025 -35.536,-15.194 -32.477,-15.949C-32.146,-16.038 -31.808,-16.114 -31.47,-16.191C-31.349,-16.217 -31.228,-16.243 -31.107,-16.268C-29.163,-16.686 -27.129,-16.93 -25.014,-16.93C-24.863,-16.93 -24.72,-16.913 -24.57,-16.91L-24.57,-16.911C-24.42,-16.913 -24.277,-16.93 -24.127,-16.93C-22.011,-16.93 -19.975,-16.685 -18.032,-16.267C-17.912,-16.243 -17.794,-16.217 -17.676,-16.192C-17.336,-16.114 -16.996,-16.038 -16.662,-15.948C-13.604,-15.193 -10.806,-14.024 -8.418,-12.496C-8.042,-12.251 -7.668,-12.005 -7.311,-11.744C-7.279,-11.72 -7.245,-11.698 -7.213,-11.675C-6.722,-11.31 -6.249,-10.93 -5.798,-10.532C-3.963,-8.921 -2.523,-7.08 -1.479,-5.008C-0.971,-4.003 -0.593,-2.97 -0.331,-1.91C-0.315,-1.841 -0.299,-1.771 -0.283,-1.701C-0.172,-1.22 -0.085,-0.734 -0.025,-0.242C-0.015,-0.158 -0.009,-0.072 0,0.013C0.053,0.515 0.087,1.021 0.087,1.535C0.087,1.541 0.088,1.548 0.088,1.556C0.088,2.083 0.053,2.601 0,3.115M12.606,1.519C12.605,0.657 12.554,-0.192 12.475,-1.035C12.462,-1.177 12.453,-1.321 12.437,-1.463C12.347,-2.288 12.215,-3.103 12.048,-3.911C12.025,-4.028 12,-4.145 11.975,-4.262C11.581,-6.04 11.01,-7.774 10.245,-9.461C8.67,-12.937 6.5,-16.027 3.734,-18.731C3.053,-19.398 2.34,-20.036 1.599,-20.648C1.551,-20.687 1.5,-20.725 1.451,-20.764C0.914,-21.202 0.351,-21.615 -0.216,-22.025C-6.742,-26.675 -15.251,-29.429 -24.57,-29.429C-33.889,-29.429 -42.4,-26.675 -48.925,-22.025C-49.493,-21.615 -50.056,-21.202 -50.593,-20.764C-50.642,-20.725 -50.693,-20.687 -50.741,-20.648C-51.482,-20.036 -52.195,-19.398 -52.876,-18.731C-55.642,-16.027 -57.812,-12.937 -59.387,-9.461C-60.152,-7.774 -60.723,-6.04 -61.117,-4.262C-61.142,-4.145 -61.166,-4.028 -61.19,-3.911C-61.357,-3.103 -61.489,-2.288 -61.579,-1.463C-61.595,-1.321 -61.604,-1.177 -61.617,-1.035C-61.696,-0.192 -61.747,0.657 -61.748,1.519C-61.748,1.531 -61.75,1.542 -61.75,1.555C-61.75,2.439 -61.697,3.309 -61.617,4.171C-61.603,4.315 -61.595,4.459 -61.579,4.602C-61.49,5.419 -61.36,6.224 -61.198,7.02C-61.167,7.174 -61.136,7.328 -61.102,7.481C-60.915,8.328 -60.696,9.164 -60.426,9.986C-60.423,9.998 -60.418,10.01 -60.414,10.021C-60.12,10.912 -59.778,11.789 -59.387,12.652C-57.824,16.101 -55.673,19.167 -52.938,21.855C-52.874,21.918 -52.808,21.979 -52.743,22.041C-52.198,22.568 -51.629,23.07 -51.047,23.561C-50.677,23.87 -50.297,24.169 -49.911,24.464C-49.724,24.609 -49.532,24.752 -49.34,24.894C-44.984,28.082 -39.707,30.405 -33.873,31.608C-32.922,31.788 -31.963,31.945 -30.981,32.061L-30.981,32.097C-28.897,32.385 -26.758,32.544 -24.57,32.544C-22.383,32.544 -20.244,32.385 -18.161,32.097L-18.161,32.061C-17.179,31.945 -16.22,31.788 -15.269,31.608C-9.435,30.405 -4.158,28.082 0.198,24.894C0.39,24.752 0.582,24.609 0.769,24.464C1.156,24.169 1.535,23.87 1.905,23.561C2.487,23.07 3.056,22.568 3.601,22.041C3.666,21.979 3.732,21.918 3.796,21.855C6.531,19.167 8.682,16.101 10.245,12.652C10.636,11.789 10.978,10.912 11.272,10.021C11.276,10.01 11.281,9.998 11.284,9.986C11.554,9.164 11.773,8.328 11.961,7.481C11.994,7.328 12.025,7.174 12.056,7.02C12.219,6.224 12.348,5.419 12.437,4.602C12.453,4.459 12.461,4.315 12.475,4.171C12.555,3.309 12.608,2.439 12.608,1.555C12.608,1.542 12.606,1.531 12.606,1.519" style="fill:rgb(73,199,233);fill-rule:nonzero;"/>
        </g>
    </g>
</svg>
